<svg width="32" height="32" xmlns="http://www.w3.org/2000/svg"><path fill="none" d="M-1-1h582v402H-1z"/><g><path fill="#fff" stroke="#fff" d="M14.13 12.48H7.4a.94.94 0 1 0 0 1.87h6.73a.94.94 0 0 0 0-1.87zM11.6 16.69H7.4a.93.93 0 1 0 0 1.86h4.2a.93.93 0 1 0 0-1.86z"/><path fill="#fff" stroke="#fff" d="M28.48 6.86a.91.91 0 0 0-.28-.66l-3.92-3.93a.94.94 0 0 0-1.32 0l-2.3 2.3H6.14a2.63 2.63 0 0 0-2.62 2.62v20.19A2.62 2.62 0 0 0 6.14 30h14.3a2.61 2.61 0 0 0 2.61-2.62V12.67l5.15-5.15a.94.94 0 0 0 .28-.66zm-8 21.27H6.14a.75.75 0 0 1-.75-.75V7.19a.76.76 0 0 1 .75-.75h12.65L16.24 9a.92.92 0 0 0-.21.89v3.69a.92.92 0 0 0 .93.93h3.86a.94.94 0 0 0 .37-.07v12.94a.75.75 0 0 1-.75.75h.04zm0-15.48h-2.59V10l5.73-5.73 2.6 2.61-5.74 5.77z"/></g></svg>