<svg width="200" height="200" xmlns="http://www.w3.org/2000/svg"><path fill="none" d="M-1-1h582v402H-1z"/><g><path fill="#fff" d="M146.83 176.1 97 175.7a31.14 31.14 0 0 1-31.17-31.19V103.4a30.31 30.31 0 0 1 8.6-21.54C87 67.54 86.61 49 86.4 45.35v-.13c-.57-8 2.07-12.91 4.39-15.59A16.49 16.49 0 0 1 102.06 24c5.69-.61 11.86 1.52 17.39 5.95a40 40 0 0 1 9.88 12.09 45.56 45.56 0 0 1 5.17 16.88 49.66 49.66 0 0 1-.44 13.77L156 73a30.78 30.78 0 0 1 22.5 9.59c5.23 5.27 8.51 13 9 21.25a2.18 2.18 0 0 1 0 .51 163.33 163.33 0 0 1-3.16 28.86 86.73 86.73 0 0 1-7.64 22.33c-9 17-21.21 20.57-29.86 20.57l-.01-.01zM97.36 44.67a67 67 0 0 1-1.2 16.09 59 59 0 0 1-13.61 28.5l-.23.23a19.21 19.21 0 0 0-5.51 13.91v41.11A20.22 20.22 0 0 0 97 164.71l49.79.39c8.2 0 15-5 20.14-14.71 5.66-10.72 9-26.66 9.53-46.09a22.06 22.06 0 0 0-5.9-14l-.16-.15A19.45 19.45 0 0 0 155.89 84h-.08L127 83.62a5.48 5.48 0 0 1-5.12-7.23 39.32 39.32 0 0 0 1.72-16.23c-.92-8.71-5-16.76-11-21.56-3.22-2.6-6.64-3.91-9.39-3.6h-.22a5.56 5.56 0 0 0-3.85 1.86c-1.38 1.62-2 4.27-1.73 7.67v.14h-.05zm.05 0v.19a.53.53 0 0 0-.05-.17l.05-.02z" class="cls-1"/><path fill="#fff" d="M35.23 173.44h-2.76a20 20 0 0 1-20-20v-45.06a20 20 0 0 1 20-20h2.76a20 20 0 0 1 20 20v45.08a20 20 0 0 1-20 19.98zm-2.76-74.06a9 9 0 0 0-9 9v45.08a9 9 0 0 0 9 9h2.76a9 9 0 0 0 9-9v-45.08a9 9 0 0 0-9-9h-2.76z" class="cls-2"/></g></svg>